<svg width="24" height="24" viewBox="0 0 24 24" fill="none" xmlns="http://www.w3.org/2000/svg">
<path d="M8.02742 18.8719C8.02742 18.9688 7.91613 19.0463 7.77581 19.0463C7.61613 19.0609 7.50484 18.9833 7.50484 18.8719C7.50484 18.7749 7.61613 18.6974 7.75645 18.6974C7.90161 18.6829 8.02742 18.7604 8.02742 18.8719ZM6.52258 18.6538C6.48871 18.7507 6.58548 18.8622 6.73065 18.8913C6.85645 18.9397 7.00161 18.8913 7.03065 18.7943C7.05968 18.6974 6.96774 18.5859 6.82258 18.5423C6.69677 18.5084 6.55645 18.5569 6.52258 18.6538ZM8.66129 18.5714C8.52097 18.6053 8.42419 18.6974 8.43871 18.8089C8.45323 18.9058 8.57903 18.9688 8.72419 18.9349C8.86452 18.901 8.96129 18.8089 8.94677 18.7119C8.93226 18.6199 8.80161 18.5569 8.66129 18.5714ZM11.8452 0C5.13387 0 0 5.10326 0 11.8252C0 17.1999 3.37742 21.7991 8.20161 23.4178C8.82097 23.5293 9.03871 23.1464 9.03871 22.8314C9.03871 22.5309 9.02419 20.8734 9.02419 19.8557C9.02419 19.8557 5.6371 20.5827 4.92581 18.4115C4.92581 18.4115 4.37419 17.0012 3.58065 16.6377C3.58065 16.6377 2.47258 15.8768 3.65806 15.8913C3.65806 15.8913 4.8629 15.9883 5.52581 17.1417C6.58548 19.0124 8.36129 18.4745 9.05323 18.1546C9.16452 17.3792 9.47903 16.8412 9.82742 16.5214C7.12258 16.2209 4.39355 15.8283 4.39355 11.1661C4.39355 9.83334 4.76129 9.16454 5.53548 8.31157C5.40968 7.99656 4.99839 6.69772 5.66129 5.02087C6.67258 4.70585 9 6.3294 9 6.3294C9.96774 6.058 11.0081 5.91745 12.0387 5.91745C13.0694 5.91745 14.1097 6.058 15.0774 6.3294C15.0774 6.3294 17.4048 4.70101 18.4161 5.02087C19.079 6.70257 18.6677 7.99656 18.5419 8.31157C19.3161 9.16939 19.7903 9.83819 19.7903 11.1661C19.7903 15.8429 16.9403 16.216 14.2355 16.5214C14.6806 16.9042 15.0581 17.6312 15.0581 18.7701C15.0581 20.4033 15.0435 22.4243 15.0435 22.8217C15.0435 23.1367 15.2661 23.5196 15.8806 23.4081C20.7194 21.7991 24 17.1999 24 11.8252C24 5.10326 18.5565 0 11.8452 0ZM4.70323 16.7152C4.64032 16.7637 4.65484 16.8752 4.7371 16.9672C4.81452 17.0448 4.92581 17.0787 4.98871 17.0157C5.05161 16.9672 5.0371 16.8558 4.95484 16.7637C4.87742 16.6861 4.76613 16.6522 4.70323 16.7152ZM4.18065 16.3227C4.14677 16.3857 4.19516 16.4632 4.29194 16.5117C4.36935 16.5601 4.46613 16.5456 4.5 16.4778C4.53387 16.4148 4.48548 16.3372 4.38871 16.2887C4.29194 16.2597 4.21452 16.2742 4.18065 16.3227ZM5.74839 18.048C5.67097 18.111 5.7 18.2564 5.81129 18.3485C5.92258 18.4599 6.0629 18.4745 6.12581 18.3969C6.18871 18.3339 6.15968 18.1885 6.0629 18.0965C5.95645 17.985 5.81129 17.9704 5.74839 18.048ZM5.19677 17.3356C5.11935 17.384 5.11935 17.51 5.19677 17.6215C5.27419 17.733 5.40484 17.7814 5.46774 17.733C5.54516 17.67 5.54516 17.544 5.46774 17.4325C5.4 17.321 5.27419 17.2726 5.19677 17.3356Z" fill="white"/>
</svg>
