<svg width="24" height="24" viewBox="0 0 24 24" fill="none" xmlns="http://www.w3.org/2000/svg">
<path d="M20.6636 11.5524C20.6636 11.5092 20.6675 11.4661 20.6675 11.419C20.6675 9.51183 19.1429 7.96571 17.2624 7.96571H15.7146H12H11.3809V8.59357V11.419C11.3809 12.2862 10.6883 12.9886 9.83313 12.9886C8.97799 12.9886 8.28537 12.2862 8.28537 11.419V6.70998H8.30085C8.45562 5.29728 9.63579 4.19851 11.0713 4.19851H15.4051C15.5134 4.19851 15.6218 4.20636 15.7262 4.21813L17.2779 2.64454C18.1253 1.78515 19.495 1.78515 20.3424 2.64454L23.3645 5.70932C24.2119 6.56871 24.2119 7.95786 23.3645 8.81725L20.6675 11.5524H20.6636ZM7.04716 6.70998V11.419C7.04716 12.9808 8.29311 14.2444 9.83313 14.2444C11.3732 14.2444 12.6191 12.9808 12.6191 11.419V9.22144H15.7146H17.2624C18.458 9.22144 19.4293 10.2064 19.4293 11.419C19.4293 12.4863 18.6786 13.3771 17.6803 13.5773C17.9976 13.9147 18.1911 14.3699 18.1911 14.8722C18.1911 15.9121 17.3591 16.7558 16.3337 16.7558H16.2293C16.2989 16.952 16.3337 17.1639 16.3337 17.3837C16.3337 18.4236 15.5018 19.2673 14.4764 19.2673H8.28537C8.25054 19.2673 8.21572 19.2673 8.1809 19.2634L6.72213 20.7428C5.87473 21.6022 4.50496 21.6022 3.65756 20.7428L0.63555 17.6819C-0.21185 16.8225 -0.21185 15.4334 0.63555 14.574L3.33253 11.8389V10.4772C3.33253 8.39737 4.99637 6.70998 7.04716 6.70998Z" fill="#61CCFF"/>
</svg>
