<svg width="24" height="24" viewBox="0 0 24 24" fill="none" xmlns="http://www.w3.org/2000/svg">
<path d="M6.9 6.08929C6.9 7.24212 5.95875 8.17857 4.8 8.17857C3.64125 8.17857 2.7 7.24212 2.7 6.08929C2.7 4.93645 3.64125 4 4.8 4C5.95875 4 6.9 4.93645 6.9 6.08929ZM2.4 11.9729C2.025 12.3907 1.8 12.9466 1.8 13.551C1.8 14.1554 2.025 14.7113 2.4 15.1292V11.9729ZM7.815 10.1335C6.70125 11.1148 6 12.5511 6 14.148C6 15.4276 6.45 16.6029 7.2 17.5244V18.3265C7.2 18.9869 6.66375 19.5204 6 19.5204H3.6C2.93625 19.5204 2.4 18.9869 2.4 18.3265V17.3267C0.9825 16.6551 0 15.2187 0 13.551C0 11.2416 1.87875 9.37245 4.2 9.37245H5.4C6.3 9.37245 7.1325 9.65226 7.815 10.1298V10.1335ZM16.8 18.3265V17.5244C17.55 16.6029 18 15.4276 18 14.148C18 12.5511 17.2988 11.1148 16.185 10.1298C16.8675 9.65226 17.7 9.37245 18.6 9.37245H19.8C22.1213 9.37245 24 11.2416 24 13.551C24 15.2187 23.0175 16.6551 21.6 17.3267V18.3265C21.6 18.9869 21.0638 19.5204 20.4 19.5204H18C17.3363 19.5204 16.8 18.9869 16.8 18.3265ZM21.3 6.08929C21.3 7.24212 20.3588 8.17857 19.2 8.17857C18.0413 8.17857 17.1 7.24212 17.1 6.08929C17.1 4.93645 18.0413 4 19.2 4C20.3588 4 21.3 4.93645 21.3 6.08929ZM21.6 11.9729V15.1329C21.975 14.7113 22.2 14.1592 22.2 13.5548C22.2 12.9504 21.975 12.3945 21.6 11.9766V11.9729ZM12 8.77551C10.6763 8.77551 9.6 7.70475 9.6 6.38775C9.6 5.07076 10.6763 4 12 4C13.3238 4 14.4 5.07076 14.4 6.38775C14.4 7.70475 13.3238 8.77551 12 8.77551ZM9 14.148C9 14.7524 9.225 15.3045 9.6 15.7261V12.5698C9.225 12.9914 9 13.5436 9 14.148ZM14.4 12.5698V15.7298C14.775 15.3083 15 14.7561 15 14.1517C15 13.5473 14.775 12.9914 14.4 12.5735V12.5698ZM16.8 14.148C16.8 15.8157 15.8175 17.252 14.4 17.9236V19.5204C14.4 20.1808 13.8638 20.7143 13.2 20.7143H10.8C10.1363 20.7143 9.6 20.1808 9.6 19.5204V17.9236C8.1825 17.252 7.2 15.8157 7.2 14.148C7.2 11.8386 9.07875 9.96939 11.4 9.96939H12.6C14.9213 9.96939 16.8 11.8386 16.8 14.148Z" fill="#9E76DD"/>
</svg>
