<svg width="256" height="206" viewBox="0 0 256 206" fill="none" xmlns="http://www.w3.org/2000/svg">
<path opacity="0.2" d="M44.2328 52.4566L59.0179 39.7178C59.719 39.112 59.8732 38.0616 59.3423 37.2812L59.0701 36.8796L58.2556 35.6545C53.0059 28.1383 71.2961 15.9599 76.2555 23.4126L77.1834 24.8124L77.4579 25.2162C77.9707 25.9921 78.9961 26.2553 79.8265 25.8492L97.3976 17.0466C98.3164 16.5838 98.6749 15.4654 98.212 14.5465C98.1689 14.4785 98.144 14.4172 98.1009 14.3514L98.0872 14.3287L96.6852 12.2347L95.5168 10.4583L94.3484 8.68194C89.6 1.56048 73.2382 4.16495 57.5954 14.8347C42.0163 25.214 33.039 39.2845 37.7738 46.3832L41.4423 52.0913L41.4695 52.0595C42.0208 52.9216 43.1846 53.1576 44.0286 52.6018C44.1171 52.545 44.1851 52.5042 44.2328 52.4566Z" fill="black"/>
<path d="M44.3551 48.028L59.138 35.2892C59.8413 34.6835 59.9956 33.6353 59.4647 32.8526L59.1924 32.4511L58.3757 31.226C53.1282 23.7098 71.4185 11.5314 76.3779 18.984L77.3058 20.3861L77.578 20.7877C78.093 21.5658 79.1185 21.8267 79.9488 21.4206L97.5177 12.6181C98.4365 12.1552 98.7972 11.0368 98.3321 10.118C98.2913 10.0522 98.2663 9.98864 98.2232 9.92284L98.2096 9.90016L96.8075 7.80614L95.6369 6.02975L94.4685 4.25335C89.7224 -2.8681 73.3605 -0.261362 57.7178 10.4061C42.1386 20.7854 33.1613 34.8559 37.8939 41.9569L41.5646 47.6627L41.5918 47.631C42.1431 48.4931 43.307 48.729 44.1509 48.1732C44.2394 48.1165 44.3052 48.0756 44.3551 48.028Z" fill="#FFC930"/>
<path d="M224.273 177.691C223.492 177.904 222.696 178.043 221.893 178.102L133.885 184.366C131.421 184.529 129.014 183.935 127.054 182.675C125.094 181.416 123.694 179.567 123.086 177.428L90.8275 60.7894C90.2717 58.802 90.4305 56.6717 91.2813 54.7002C92.132 52.7287 93.6294 51.0181 95.5646 49.8089L172.063 1.83263C173.054 1.22462 174.134 0.754996 175.264 0.437377C178.061 -0.333982 181.02 -0.077617 183.49 1.14748C185.957 2.37258 187.737 4.46886 188.434 6.97351L232.22 165.295C232.42 165.996 232.522 166.722 232.531 167.455C232.574 169.694 231.78 171.924 230.282 173.782C228.781 175.64 226.664 177.017 224.273 177.691Z" fill="#3C2C5B"/>
<path d="M74.7563 53.8813L151.264 31.5232C163.689 27.8933 176.691 35.0125 180.321 47.4404L202.679 123.948C206.312 136.374 199.19 149.373 186.764 153.005L110.257 175.361C97.829 178.993 84.8293 171.872 81.1971 159.446L58.8413 82.9388C55.2091 70.5131 62.3555 57.5044 74.7563 53.8813Z" fill="#FFC930"/>
<path d="M231.14 50.9886L231.539 61.9283L238.431 52.0435L250.859 58.4481L243.851 46.9571L254.823 42.6602L242.681 39.0303L249.001 33.2428" stroke="#FFC930" stroke-width="2" stroke-linecap="round" stroke-linejoin="round"/>
<path d="M67.9337 185.892L58.7432 188.583L67.2758 192.665L65.4994 201.533L73.4716 195.9L81.0445 202.719L79.4428 192.553L88.6969 187.077L79.0753 185.908L79.2522 175.583L73.281 183.091L65.1636 176.961L67.9337 185.892Z" fill="#3C2C5B"/>
<path d="M5.19306 99.2894L5.62865 95.4326L7.70906 98.8947L10.917 96.9799L9.9959 100.841L13.7075 103.414L9.32891 103.323L9.67375 107.795L6.79703 104.369L2.6385 106.536L4.26516 102.187L0 99.396L5.19306 99.2894Z" fill="#61CCFF"/>
<path d="M110.164 61.2367L91.4448 91.3946C88.7632 95.7097 88.0009 100.939 89.3099 105.842L98.1556 138.944C100.794 148.836 110.969 154.741 120.883 152.082L163.29 140.773C173.204 138.137 179.089 127.962 176.453 118.045L167.605 84.9447C166.298 80.042 163.006 75.8789 158.539 73.4832L127.29 56.6585C121.256 53.4347 113.76 55.4175 110.164 61.2367Z" fill="#3C2C5B"/>
<path d="M119.359 61.3452C121.058 60.8869 122.869 61.1047 124.436 61.9328L155.685 78.7552C158.691 80.3887 160.894 83.1792 161.786 86.4915L170.634 119.615C172.422 126.325 168.433 133.19 161.743 134.999L119.316 146.285C112.605 148.073 105.74 144.085 103.932 137.397L95.1065 104.294C94.233 100.982 94.7571 97.4743 96.5448 94.5545L115.241 64.3943C116.178 62.8925 117.637 61.8012 119.359 61.3452ZM117.812 55.5487C114.631 56.3971 111.906 58.4231 110.164 61.2363L91.4448 91.3942C88.7632 95.7092 88.0009 100.939 89.3099 105.841L98.1556 138.944C100.794 148.835 110.969 154.741 120.883 152.082L163.29 140.772C173.204 138.136 179.089 127.961 176.453 118.045L167.605 84.9442C166.298 80.0416 163.006 75.8785 158.539 73.4828L127.29 56.6581C124.37 55.0904 120.995 54.6979 117.812 55.5487Z" fill="#0A93D4"/>
<path opacity="0.2" d="M146.715 89.9559L102.647 101.715L113.862 143.738L157.929 131.981L146.715 89.9559Z" fill="black"/>
<path d="M149.439 85.5319L105.372 97.2883L116.584 139.314L160.651 127.557L149.439 85.5319Z" fill="white"/>
<path d="M134.874 119.506L89.0693 104.97L98.1351 138.921C100.771 148.815 110.946 154.72 120.863 152.061L163.247 140.752C173.161 138.116 179.046 127.938 176.408 118.045L167.344 84.0934L134.874 119.506Z" fill="#0A93D4"/>
<path d="M132.15 109.308L100.356 144.021C104.694 150.907 112.995 154.176 120.863 152.084L163.247 140.752C171.112 138.66 176.691 131.686 177.018 123.558L132.15 109.308Z" fill="#0A93D4"/>
<path d="M130.734 132.514L144.941 128.723C146.946 128.179 148.995 129.377 149.539 131.382C150.084 133.386 148.886 135.434 146.881 135.979L132.674 139.772C130.668 140.316 128.62 139.116 128.075 137.113C127.531 135.085 128.729 133.038 130.734 132.514Z" fill="#3C2C5B"/>
<path d="M133.436 135.652L144.158 132.798" stroke="#181818" stroke-linecap="round" stroke-linejoin="round"/>
<path d="M100.335 144.173L125.307 116.586" stroke="#181818" stroke-linecap="round" stroke-linejoin="round"/>
<path d="M141.63 112.314L176.845 123.471" stroke="#181818" stroke-linecap="round" stroke-linejoin="round"/>
<path d="M95.5418 106.365L89.5479 104.557" stroke="#181818" stroke-linecap="round" stroke-linejoin="round"/>
<path d="M162.484 88.7147L166.929 84.1592" stroke="#181818" stroke-linecap="round" stroke-linejoin="round"/>
<path d="M31.1333 74.2861L39.743 76.5593L46.0409 67.9678L44.0286 78.5717L53.2146 79.1479L43.7496 84.012V94.3346L39.4436 85.4459L31.7118 88.8943L36.5941 81.4393L31.1333 74.2861Z" stroke="#3C2C5B" stroke-width="2" stroke-linecap="round" stroke-linejoin="round"/>
</svg>
