<svg width="237" height="56" viewBox="0 0 237 56" fill="none" xmlns="http://www.w3.org/2000/svg">
<rect x="2" y="2" width="233" height="52" stroke="white" stroke-width="4"/>
<path d="M23.0273 14.4062V40H17.3145V14.4062H23.0273ZM30.8145 14.4062V18.8535H9.68555V14.4062H30.8145ZM53.9269 35.5703V40H40.3038V35.5703H53.9269ZM42.255 14.4062V40H36.5245V14.4062H42.255ZM52.1691 24.707V28.9961H40.3038V24.707H52.1691ZM53.9445 14.4062V18.8535H40.3038V14.4062H53.9445ZM70.2541 19.2754L63.6448 40H57.5276L67.0022 14.4062H70.8694L70.2541 19.2754ZM75.7385 40L69.1116 19.2754L68.426 14.4062H72.3459L81.8557 40H75.7385ZM75.4573 30.4727V34.9023H62.1155V30.4727H75.4573ZM89.6048 14.4062H94.3509L100.503 32.7051L106.638 14.4062H111.384L102.419 40H98.5697L89.6048 14.4062ZM86.8627 14.4062H91.6966L92.5931 33.373V40H86.8627V14.4062ZM109.292 14.4062H114.144V40H108.396V33.373L109.292 14.4062ZM134.549 33.25C134.549 32.8164 134.485 32.4297 134.356 32.0898C134.227 31.7383 133.993 31.416 133.653 31.123C133.313 30.8301 132.833 30.5371 132.211 30.2441C131.59 29.9395 130.776 29.6289 129.768 29.3125C128.62 28.9375 127.524 28.5156 126.481 28.0469C125.45 27.5664 124.53 27.0098 123.721 26.377C122.913 25.7441 122.274 25.0059 121.805 24.1621C121.348 23.3184 121.12 22.334 121.12 21.209C121.12 20.1191 121.36 19.1348 121.84 18.2559C122.321 17.377 122.995 16.627 123.862 16.0059C124.729 15.373 125.749 14.8926 126.92 14.5645C128.092 14.2246 129.381 14.0547 130.788 14.0547C132.663 14.0547 134.309 14.3887 135.727 15.0566C137.157 15.7129 138.27 16.6387 139.067 17.834C139.864 19.0176 140.262 20.3945 140.262 21.9648H134.567C134.567 21.2734 134.42 20.6641 134.127 20.1367C133.846 19.5977 133.413 19.1758 132.827 18.8711C132.252 18.5664 131.532 18.4141 130.665 18.4141C129.821 18.4141 129.112 18.543 128.538 18.8008C127.975 19.0469 127.547 19.3867 127.254 19.8203C126.973 20.2539 126.833 20.7285 126.833 21.2441C126.833 21.6543 126.938 22.0293 127.149 22.3691C127.372 22.6973 127.688 23.0078 128.098 23.3008C128.52 23.582 129.036 23.8516 129.645 24.1094C130.254 24.3672 130.952 24.6133 131.737 24.8477C133.108 25.2812 134.321 25.7617 135.375 26.2891C136.442 26.8164 137.338 27.4141 138.065 28.082C138.791 28.75 139.336 29.5059 139.7 30.3496C140.075 31.1934 140.262 32.1484 140.262 33.2148C140.262 34.3516 140.04 35.3594 139.594 36.2383C139.161 37.1172 138.528 37.8672 137.696 38.4883C136.875 39.0977 135.891 39.5605 134.743 39.877C133.594 40.1934 132.311 40.3516 130.893 40.3516C129.604 40.3516 128.333 40.1875 127.079 39.8594C125.825 39.5195 124.688 39.0039 123.668 38.3125C122.661 37.6211 121.852 36.7422 121.243 35.6758C120.645 34.5977 120.346 33.3203 120.346 31.8438H126.077C126.077 32.6172 126.188 33.2734 126.411 33.8125C126.633 34.3398 126.95 34.7676 127.36 35.0957C127.782 35.4238 128.291 35.6582 128.889 35.7988C129.487 35.9395 130.155 36.0098 130.893 36.0098C131.749 36.0098 132.44 35.8926 132.967 35.6582C133.506 35.4121 133.905 35.0781 134.163 34.6562C134.42 34.2344 134.549 33.7656 134.549 33.25ZM156.607 31.1055H150.173V26.6582H156.607C157.556 26.6582 158.318 26.5 158.892 26.1836C159.478 25.8672 159.906 25.4336 160.175 24.8828C160.457 24.3203 160.597 23.6875 160.597 22.9844C160.597 22.2578 160.457 21.584 160.175 20.9629C159.906 20.3301 159.478 19.8203 158.892 19.4336C158.318 19.0469 157.556 18.8535 156.607 18.8535H152.248V40H146.517V14.4062H156.607C158.646 14.4062 160.392 14.7754 161.845 15.5137C163.31 16.252 164.429 17.2656 165.203 18.5547C165.988 19.832 166.38 21.2969 166.38 22.9492C166.38 24.6016 165.988 26.0371 165.203 27.2559C164.429 28.4746 163.31 29.4238 161.845 30.1035C160.392 30.7715 158.646 31.1055 156.607 31.1055ZM178.841 14.4062V40H173.128V14.4062H178.841ZM203.746 35.5703V40H190.123V35.5703H203.746ZM192.074 14.4062V40H186.344V14.4062H192.074ZM201.988 24.707V28.9961H190.123V24.707H201.988ZM203.764 14.4062V18.8535H190.123V14.4062H203.764ZM226.138 35.5703V40H213.218V35.5703H226.138ZM215.169 14.4062V40H209.438V14.4062H215.169Z" fill="white"/>
</svg>
