<svg width="269" height="270" viewBox="0 0 269 270" fill="none" xmlns="http://www.w3.org/2000/svg">
<path d="M200.22 221.84L170.736 162.992L228.768 150.084C229.265 149.968 229.704 149.684 230.021 149.287C230.338 148.89 230.515 148.394 230.527 147.889C230.523 147.362 230.344 146.852 230.01 146.447C229.672 146.041 229.207 145.768 228.689 145.671L173.067 132.772L191.656 78.6159C191.838 78.1281 191.84 77.5897 191.662 77.1034C191.487 76.6136 191.148 76.2018 190.695 75.94C190.237 75.6433 189.689 75.5261 189.15 75.6075C188.611 75.689 188.12 75.9654 187.769 76.3861L146.54 121.37L89.8983 71.4026C89.4997 71.0437 88.9845 70.8423 88.4479 70.8281C87.915 70.8158 87.3902 70.9966 86.9747 71.3341C86.5501 71.6717 86.255 72.1533 86.149 72.6893C86.0448 73.2217 86.1261 73.779 86.3917 74.2547L121.822 134.833L45.4376 151.689C44.8893 151.789 44.3969 152.087 44.0543 152.526C43.7099 152.969 43.5376 153.517 43.573 154.074C43.6084 154.632 43.8461 155.153 44.2408 155.547C44.6354 155.941 45.1615 156.175 45.72 156.21L121.915 162.809L106.88 214.266C106.746 214.765 106.788 215.292 106.989 215.768C107.19 216.243 107.546 216.64 107.995 216.891L108.098 216.943C108.546 217.175 109.062 217.248 109.559 217.15C110.052 217.05 110.497 216.783 110.823 216.395L145.962 176.556L196.403 224.54C196.804 224.895 197.322 225.116 197.857 225.153C198.39 225.193 198.922 225.052 199.381 224.765C199.851 224.464 200.205 224.003 200.359 223.464C200.517 222.926 200.465 222.347 200.22 221.84Z" fill="#FFC930"/>
<path d="M145.159 50.0059L143.703 26.7434" stroke="white" stroke-width="4" stroke-linecap="round" stroke-linejoin="round"/>
<path d="M215.756 109.762L226.831 103.409" stroke="white" stroke-width="4" stroke-linecap="round" stroke-linejoin="round"/>
<path d="M168.832 251.739L174.025 267.635" stroke="white" stroke-width="4" stroke-linecap="round" stroke-linejoin="round"/>
<path d="M64.4857 107.291L42.273 96.0225" stroke="white" stroke-width="4" stroke-linecap="round" stroke-linejoin="round"/>
</svg>
