<svg width="24" height="24" viewBox="0 0 24 24" fill="none" xmlns="http://www.w3.org/2000/svg">
<path d="M14.7302 2.04679C14.0927 1.86397 13.4289 2.23335 13.2451 2.86765L8.44472 19.5832C8.26096 20.2175 8.63224 20.878 9.26979 21.0608C9.90734 21.2436 10.5711 20.8742 10.7549 20.2399L15.5553 3.52433C15.739 2.89004 15.3678 2.22962 14.7302 2.04679ZM17.753 6.52792C17.2842 6.99431 17.2842 7.75174 17.753 8.21813L21.102 11.5538L17.7492 14.8894C17.2804 15.3558 17.2804 16.1133 17.7492 16.5797C18.218 17.0461 18.9793 17.0461 19.4481 16.5797L23.6484 12.4008C24.1172 11.9344 24.1172 11.1769 23.6484 10.7105L19.4481 6.53165C18.9793 6.06525 18.218 6.06525 17.7492 6.53165L17.753 6.52792ZM6.2508 6.52792C5.78201 6.06152 5.02071 6.06152 4.55192 6.52792L0.35159 10.7068C-0.117197 11.1732 -0.117197 11.9306 0.35159 12.397L4.55192 16.5759C5.02071 17.0423 5.78201 17.0423 6.2508 16.5759C6.71959 16.1095 6.71959 15.3521 6.2508 14.8857L2.89804 11.5538L6.2508 8.21813C6.71959 7.75174 6.71959 6.99431 6.2508 6.52792Z" fill="#FFC930"/>
</svg>
