<svg width="937" height="928" viewBox="0 0 937 928" fill="none" xmlns="http://www.w3.org/2000/svg">
<path d="M810.81 704.73L321.01 157.51L8.72998 569.15L810.81 704.73Z" fill="#3C2C5B"/>
<path d="M726.21 257.68L181.58 206.97L131.44 745.46L676.07 796.18L726.21 257.68Z" fill="#FFC930"/>
<path d="M572.33 872.6L614.68 880.76L569.06 888.1L572.39 927.95L553.74 893.62L518.1 905.21L546.33 880.46L516.56 853.64L557.14 868.19L583.14 837.55L572.33 872.6Z" fill="#9E76DD"/>
<path d="M720.77 290.76L683.13 258.79C681.38 257.3 678.71 257.47 677.14 259.28C676.59 259.93 676.23 260.8 676.15 261.63L670.95 317.37C670.73 319.72 672.42 321.77 674.78 321.99C675.61 322.07 676.47 321.87 677.21 321.45L720.05 297.69C722.11 296.55 722.84 293.96 721.7 291.97C721.46 291.53 721.16 291.08 720.77 290.76Z" fill="#3C2C5B"/>
<path opacity="0.2" d="M720.77 290.76L683.13 258.79C681.38 257.3 678.71 257.47 677.14 259.28C676.59 259.93 676.23 260.8 676.15 261.63L672.07 305.3L713.27 301.46L720.05 297.69C722.11 296.55 722.84 293.96 721.7 291.97C721.46 291.53 721.16 291.08 720.77 290.76Z" fill="black"/>
<path d="M809.45 137.66L681.98 125.77C659.1 123.63 638.87 140.41 636.73 163.28L628.87 247.5C626.74 270.38 643.52 290.61 666.39 292.75L793.86 304.65C816.74 306.78 836.97 290 839.11 267.13L846.97 182.91C849.03 160.03 832.25 139.79 809.45 137.66Z" fill="#3C2C5B"/>
<path d="M771.38 187.46C766.79 181.93 758.54 181.16 753.01 185.74L706.18 224.58C700.64 229.17 699.87 237.42 704.46 242.95C709.05 248.48 717.3 249.25 722.83 244.67L769.67 205.83C775.2 201.24 775.97 192.99 771.38 187.46Z" fill="white"/>
<path d="M710.17 181.75C704.64 186.33 703.87 194.58 708.46 200.11L747.3 246.95C751.89 252.48 760.14 253.25 765.67 248.66C771.2 244.08 771.97 235.83 767.38 230.3L728.54 183.46C723.96 177.93 715.71 177.16 710.17 181.75Z" fill="white"/>
<path d="M351.54 525.46H239.3L325.97 420.94V604.01" stroke="#3C2C5B" stroke-width="4" stroke-linecap="round" stroke-linejoin="round"/>
<path d="M619.64 525.46H507.2L594.07 420.94V604.01" stroke="#3C2C5B" stroke-width="4" stroke-linecap="round" stroke-linejoin="round"/>
<path d="M420.75 420.94H440.64C461.95 420.94 479.2 438.19 479.2 459.5V563.62C479.2 584.93 461.95 602.18 440.64 602.18H420.75C399.44 602.18 382.18 584.93 382.18 563.62V459.5C382.18 438.19 399.44 420.94 420.75 420.94Z" stroke="#3C2C5B" stroke-width="4" stroke-linecap="round" stroke-linejoin="round"/>
<path d="M212.37 58.2699L277.02 79.7199L213.92 92.4999L219.28 143.24L184.73 101.17L143.8 137.77L166.58 81.9899L105.23 75.9999L166.48 61.2599L141.63 13.0999L188.55 47.4399L219.07 0.419922L212.37 58.2699Z" fill="#9E76DD"/>
<path d="M880.92 830.38C911.55 830.38 936.38 805.55 936.38 774.92C936.38 744.28 911.55 719.45 880.92 719.45C850.28 719.45 825.45 744.28 825.45 774.92C825.45 805.55 850.28 830.38 880.92 830.38Z" fill="#9E76DD"/>
<path d="M25.5201 427.81C11.8701 427.81 0.810059 438.88 0.810059 452.53C0.810059 466.17 11.8701 477.24 25.5201 477.24C39.17 477.24 50.2301 466.17 50.2301 452.53C50.2301 438.88 39.17 427.81 25.5201 427.81Z" fill="#9E76DD"/>
</svg>
