<svg width="24" height="24" viewBox="0 0 24 24" fill="none" xmlns="http://www.w3.org/2000/svg">
<rect width="24" height="24" fill="black"/>
<path d="M8.45508 7.04688V17H6.2334V7.04688H8.45508ZM11.4834 7.04688V8.77637H3.2666V7.04688H11.4834ZM18.7557 14.375C18.7557 14.2064 18.7307 14.056 18.6805 13.9238C18.6304 13.7871 18.5393 13.6618 18.4071 13.5479C18.2749 13.4339 18.0881 13.32 17.8466 13.2061C17.605 13.0876 17.2883 12.9668 16.8964 12.8438C16.4498 12.6979 16.0236 12.5339 15.618 12.3516C15.217 12.1647 14.8593 11.9482 14.5448 11.7021C14.2304 11.4561 13.982 11.1689 13.7997 10.8408C13.622 10.5127 13.5331 10.1299 13.5331 9.69238C13.5331 9.26855 13.6265 8.88574 13.8134 8.54395C14.0002 8.20215 14.2623 7.91048 14.5995 7.66895C14.9367 7.42285 15.3332 7.236 15.7889 7.1084C16.2447 6.97624 16.746 6.91016 17.2929 6.91016C18.022 6.91016 18.6623 7.04004 19.2137 7.2998C19.7697 7.55501 20.2027 7.91504 20.5126 8.37988C20.8225 8.84017 20.9774 9.37565 20.9774 9.98633H18.7626C18.7626 9.71745 18.7056 9.48047 18.5917 9.27539C18.4823 9.06576 18.3137 8.90169 18.0858 8.7832C17.8625 8.66471 17.5822 8.60547 17.245 8.60547C16.9169 8.60547 16.6412 8.6556 16.4179 8.75586C16.1991 8.85156 16.0328 8.98372 15.9188 9.15234C15.8095 9.32096 15.7548 9.50553 15.7548 9.70605C15.7548 9.86556 15.7958 10.0114 15.8778 10.1436C15.9644 10.2712 16.0874 10.3919 16.247 10.5059C16.411 10.6152 16.6115 10.7201 16.8485 10.8203C17.0855 10.9206 17.3567 11.0163 17.662 11.1074C18.1952 11.276 18.6669 11.4629 19.077 11.668C19.4917 11.873 19.8404 12.1055 20.1229 12.3652C20.4055 12.625 20.6174 12.9189 20.7587 13.2471C20.9045 13.5752 20.9774 13.9466 20.9774 14.3613C20.9774 14.8034 20.8908 15.1953 20.7177 15.5371C20.549 15.8789 20.3029 16.1706 19.9794 16.4121C19.6604 16.6491 19.2776 16.8291 18.8309 16.9521C18.3843 17.0752 17.8853 17.1367 17.3339 17.1367C16.8326 17.1367 16.3381 17.0729 15.8505 16.9453C15.3628 16.8132 14.9208 16.6126 14.5243 16.3438C14.1324 16.0749 13.8179 15.7331 13.5809 15.3184C13.3485 14.8991 13.2323 14.4023 13.2323 13.8281H15.4608C15.4608 14.1289 15.5041 14.3841 15.5907 14.5938C15.6773 14.7988 15.8003 14.9652 15.9598 15.0928C16.1239 15.2204 16.3221 15.3115 16.5546 15.3662C16.787 15.4209 17.0468 15.4482 17.3339 15.4482C17.6665 15.4482 17.9354 15.4027 18.1405 15.3115C18.3501 15.2158 18.5051 15.0859 18.6054 14.9219C18.7056 14.7578 18.7557 14.5755 18.7557 14.375Z" fill="white"/>
</svg>
