<svg width="1365" height="845" viewBox="0 0 1365 845" fill="none" xmlns="http://www.w3.org/2000/svg">
<path d="M532.819 438.99C575.8 438.99 610.64 404.15 610.64 361.169C610.64 318.188 575.8 283.348 532.819 283.348C489.838 283.348 454.998 318.188 454.998 361.169C454.998 404.15 489.838 438.99 532.819 438.99Z" fill="#61CCFF"/>
<path d="M533.102 355.039C543.075 355.039 551.15 346.965 551.15 337.001C551.15 327.028 543.075 318.953 533.102 318.953C523.138 318.953 515.054 327.028 515.054 337.001C515.054 346.965 523.138 355.039 533.102 355.039Z" fill="white"/>
<path d="M532.819 407.323C546.249 407.323 559.017 401.477 567.734 391.296C566.601 371.104 551.519 355.087 533.064 355.087C514.412 355.087 499.244 371.387 498.394 391.91C507.149 401.723 519.682 407.323 532.819 407.323Z" fill="white"/>
<path d="M192.824 0H362.595C368.96 0 375.26 1.24665 381.134 3.68328C387.008 6.11046 392.354 9.6804 396.849 14.1853C401.345 18.6808 404.915 24.0168 407.342 29.8912C409.779 35.775 411.025 42.0743 411.025 48.4303V218.201C411.025 224.557 409.779 230.856 407.342 236.74C404.915 242.615 401.345 247.951 396.849 252.446C392.354 256.951 387.008 260.521 381.134 262.948C375.26 265.385 368.96 266.631 362.595 266.631H192.824C186.468 266.631 180.169 265.385 174.294 262.948C168.411 260.521 163.075 256.951 158.579 252.446C154.074 247.951 150.514 242.615 148.077 236.74C145.64 230.856 144.394 224.557 144.394 218.201V48.4303C144.394 42.0743 145.64 35.775 148.077 29.8912C150.514 24.0168 154.074 18.6808 158.579 14.1853C163.075 9.6804 168.411 6.11046 174.294 3.68328C180.169 1.24665 186.468 0 192.824 0Z" fill="#9E76DD"/>
<path d="M1146.7 140.267H1316.47C1322.83 140.267 1329.13 141.513 1335.01 143.95C1340.88 146.377 1346.23 149.947 1350.72 154.443C1355.22 158.947 1358.79 164.284 1361.22 170.158C1363.65 176.042 1364.9 182.341 1364.9 188.697V358.468C1364.9 364.824 1363.65 371.123 1361.22 376.997C1358.79 382.881 1355.22 388.217 1350.72 392.713C1346.23 397.218 1340.88 400.778 1335.01 403.215C1329.13 405.651 1322.83 406.898 1316.47 406.898H1146.7C1140.34 406.898 1134.04 405.651 1128.17 403.215C1122.28 400.778 1116.95 397.218 1112.45 392.713C1107.95 388.217 1104.39 382.881 1101.95 376.997C1099.51 371.123 1098.27 364.824 1098.27 358.468V188.697C1098.27 182.341 1099.51 176.042 1101.95 170.158C1104.39 164.284 1107.95 158.947 1112.45 154.443C1116.95 149.947 1122.28 146.377 1128.17 143.95C1134.04 141.513 1140.34 140.267 1146.7 140.267Z" fill="#3C2C5B"/>
<path d="M1234.99 693.457C1278.14 693.457 1313.13 658.475 1313.13 615.324C1313.13 572.173 1278.14 537.201 1234.99 537.201C1191.85 537.201 1156.87 572.173 1156.87 615.324C1156.87 658.475 1191.85 693.457 1234.99 693.457Z" fill="#9E76DD"/>
<path opacity="0.2" d="M1230.77 655.151C1229.13 655.151 1227.57 654.537 1226.42 653.347L1199.2 626.129C1196.77 623.701 1196.77 619.801 1199.2 617.421C1201.62 615.041 1205.52 615.003 1207.9 617.421L1230.15 639.672L1261.56 599.071C1263.66 596.36 1267.51 595.869 1270.18 597.956C1272.89 600.053 1273.38 603.916 1271.29 606.579L1235.57 652.733C1234.5 654.121 1232.86 654.99 1231.09 655.113C1231.02 655.113 1230.89 655.151 1230.77 655.151Z" fill="#0B0B0B"/>
<path d="M1230.77 644.554C1229.13 644.554 1227.57 643.94 1226.42 642.75L1199.2 615.532C1196.77 613.114 1196.77 609.214 1199.2 606.824C1201.62 604.444 1205.52 604.407 1207.9 606.824L1230.15 629.085L1261.56 588.474C1263.66 585.764 1267.51 585.272 1270.18 587.369C1272.89 589.466 1273.38 593.319 1271.29 595.992L1235.57 642.137C1234.5 643.534 1232.86 644.394 1231.09 644.517C1231.02 644.517 1230.89 644.554 1230.77 644.554Z" fill="white"/>
<path d="M844.547 166.682L805.948 253.494L881.228 189.471L915.473 251.549L911.535 172.717L1003.41 139.058L909.316 135.809L951.182 46.2582L878.14 123.512L837.596 45.6065L850.1 137.207L763.505 130.039L844.547 166.682Z" fill="#CECECE"/>
<path d="M64.2684 630.35L65.2884 698.991L95.2457 634.166L136.536 664.491L110.026 613.983L160.071 564.042L97.3801 590.457L97.6635 519.021L73.2027 591.846L22.978 553.067L58.9702 609.337L0 630.917L64.2684 630.35Z" fill="#CECECE"/>
<path d="M235.144 93.3191H320.266C323.769 93.3097 327.235 93.9991 330.475 95.3402C333.714 96.6813 336.651 98.6457 339.126 101.12C341.61 103.604 343.574 106.541 344.915 109.78C346.247 113.01 346.936 116.486 346.936 119.99V154.981C346.936 158.485 346.247 161.951 344.915 165.19C343.574 168.42 341.61 171.367 339.126 173.841C336.651 176.316 333.714 178.28 330.475 179.621C327.235 180.962 323.769 181.652 320.266 181.652H235.144C231.64 181.652 228.174 180.962 224.935 179.621C221.695 178.28 218.758 176.316 216.284 173.841C213.809 171.367 211.845 168.42 210.494 165.19C209.163 161.951 208.473 158.485 208.473 154.981V119.99C208.473 116.486 209.163 113.01 210.494 109.78C211.845 106.541 213.809 103.604 216.284 101.12C218.758 98.6457 221.695 96.6813 224.935 95.3402C228.174 93.9991 231.64 93.3097 235.144 93.3191Z" fill="#FFC930"/>
<path d="M257.499 156.586L235.541 137.736L257.499 118.979" stroke="white" stroke-width="4" stroke-linecap="round" stroke-linejoin="round"/>
<path d="M297.807 118.979L319.765 137.736L297.807 156.586" stroke="white" stroke-width="4" stroke-linecap="round" stroke-linejoin="round"/>
<path d="M283.971 117.78L271.335 157.087" stroke="white" stroke-width="4" stroke-linecap="round" stroke-linejoin="round"/>
<path d="M1192.11 267.481H1156.69V343.168H1192.11V267.481Z" fill="#61CCFF"/>
<path d="M1249.23 203.883H1213.82V343.168H1249.23V203.883Z" fill="#FFC930"/>
<path d="M1306.37 228.099H1270.96V343.168H1306.37V228.099Z" fill="#CECECE"/>
<path d="M840.996 828.236C846.105 829.483 879.509 812.058 880.69 811.473C880.69 811.473 880.69 811.473 880.69 811.407C881.606 794.18 880.426 776.623 877.29 759.718C877.29 759.718 877.29 759.652 877.224 759.652L844.339 753.041L814.92 759.983C814.854 759.983 814.854 760.049 814.854 760.049C821.144 774.395 825.668 785.794 826.848 794.114C826.914 794.369 835.886 826.999 840.996 828.236Z" fill="#A66241"/>
<path d="M744.437 824.969C749.348 826.14 785.643 812.058 786.889 811.539C786.889 811.539 786.955 811.539 786.955 811.473C788.589 798.241 790.355 787.362 790.686 772.364C790.752 768.171 790.554 763.911 790.421 759.586C790.421 759.586 790.421 759.52 790.355 759.52L761.276 755.525L728.911 759.397C728.845 759.397 728.845 759.454 728.845 759.454C730.554 770.069 731.725 779.9 731.857 787.956C731.857 790.119 731.857 792.018 731.791 793.916C731.791 793.982 731.791 793.982 731.857 793.982C741.623 794.303 739.262 823.656 744.437 824.969Z" fill="#A66241"/>
<path d="M635.818 371.661C634.449 370.283 629.406 372.247 629.925 379.189C629.925 379.255 629.859 379.321 629.793 379.255C623.834 367.988 608.307 345.586 604.444 357.183C604.444 357.249 604.378 357.249 604.378 357.249C599.203 354.104 596.643 359.214 597.89 363.728C597.89 363.794 597.89 363.794 597.824 363.794C592.063 363.86 592.649 369.631 593.961 372.899V372.965C587.539 376.96 601.035 399.626 601.885 400.419C603.793 406.313 607.127 417.381 612.368 422.689C612.368 422.689 612.368 422.689 612.368 422.755C612.104 428.847 612.038 434.74 612.17 440.048C612.17 440.114 612.17 440.114 612.236 440.114L633.533 441.36C633.533 441.36 633.533 441.36 633.589 441.36L654.952 425.966V425.9C650.363 407.88 642.373 378.206 635.818 371.661Z" fill="#A66241"/>
<path d="M717.71 326.593C725.445 309.622 745.089 304.777 764.742 315.383C781.582 324.685 779.419 334.97 778.238 348.731C777.908 352.329 779.551 367.005 778.569 378.008C778.304 381.021 777.908 383.778 777.653 386.14L777.454 386.989L731.725 388.293C731.669 388.293 731.602 386.262 731.602 386.262L732.056 383.117C732.056 383.061 731.99 383.061 731.99 383.061C706.641 387.773 701.73 370.15 708.407 351.743V351.677C703.1 346.502 704.148 343.159 712.015 342.573C712.015 342.573 712.081 342.573 712.081 342.507C712.931 338.578 716.01 330.258 717.71 326.593Z" fill="#A66241"/>
<path opacity="0.2" d="M732.046 383.117L731.593 386.14V386.196L731.064 393.402C731.064 393.468 731.13 393.468 731.196 393.468L745.41 379.056C745.476 378.99 745.41 378.934 745.344 378.934C737.883 381.682 732.575 382.928 732.046 383.117C732.046 383.061 732.046 383.061 732.046 383.117Z" fill="#171717"/>
<path d="M714.688 358.553C714.688 358.553 718.031 359.346 720.713 356.267" stroke="#171717" stroke-width="4" stroke-linecap="round" stroke-linejoin="round"/>
<path d="M732.046 383.061C734.672 382.4 742.86 380.171 745.344 378.99" stroke="#171717" stroke-width="4" stroke-linecap="round" stroke-linejoin="round"/>
<path d="M748.885 362.028L754.977 357.438" stroke="#171717" stroke-width="4" stroke-linecap="round" stroke-linejoin="round"/>
<path d="M720.911 341.005C723.603 341.062 723.603 345 720.911 345.066C718.229 345 718.229 341.062 720.911 341.005Z" fill="#231F20"/>
<path d="M781.119 351.281C782.432 337.596 781.969 321.607 765.139 312.37C745.023 302.35 726.096 306.146 717.71 326.527V326.593C718.173 327.113 725.114 334.517 744.569 327.047C744.636 327.047 744.702 327.113 744.636 327.113C740.905 332.553 737.231 343.036 741.491 351.347C741.491 351.413 741.557 351.413 741.623 351.347C767.434 333.27 777.653 358.364 755.374 372.313C755.308 372.313 755.308 372.379 755.374 372.445C764.223 379.189 777.587 378.074 778.503 377.942L778.569 377.885C779.617 367.468 780.666 354.888 781.119 351.281Z" fill="#231F20"/>
<path d="M806.533 420.328C797.165 405.916 788.646 399.626 776.859 395.045L776.793 394.979L777.643 386.262C777.643 386.196 777.643 386.196 777.577 386.196H731.659C731.593 386.196 731.593 386.196 731.593 386.262L730.611 394.129C730.611 394.195 730.545 394.195 730.545 394.195C700.606 392.42 675.39 420.46 658.097 439.585C658.031 439.651 657.965 439.585 657.965 439.585C657.767 438.735 656.652 433.559 654.82 426.032C654.82 425.966 654.754 425.966 654.754 425.966L612.104 440.114L612.038 440.18C612.302 510.596 647.614 516.82 689.802 486.428C695.629 482.434 701.069 477.976 706.046 472.933C706.112 472.866 706.112 472.933 706.178 472.933L711.741 491.009L717.512 509.746L717.578 509.813L756.025 517.349L787.796 509.945H787.862L797.099 521.476C797.231 521.996 802.926 545.975 808.167 541.781C812.956 537.919 816.554 532.743 819.047 526.774C832.864 494.22 816.752 436.185 806.533 420.328Z" fill="#3C2C5B"/>
<path opacity="0.2" d="M818.981 526.841C797.363 511.125 794.936 473.518 794.671 468.409C794.671 468.343 794.539 468.343 794.539 468.409C793.038 477.844 789.307 501.294 787.928 509.746V509.813L797.099 521.731C797.231 522.062 806.335 544.53 810.925 539.487C816.034 534.443 818.849 527.568 819.113 526.973C818.981 526.907 818.981 526.907 818.981 526.841Z" fill="black"/>
<path d="M861.953 711.703C844.131 673.511 839.022 680.915 823.892 581.939C818.584 547.278 805.485 525.603 787.862 509.746C787.862 509.746 787.862 509.746 787.796 509.746H766.244H717.512C717.512 509.746 717.445 509.746 717.445 509.813C717.115 512.041 705.649 588.55 715.67 682.162C717.833 702.533 722.942 726.578 726.814 748.253C727.532 752.191 728.184 755.657 728.712 759.454C728.712 759.454 728.712 759.52 728.779 759.52L790.223 759.586C790.289 759.586 790.289 759.586 790.289 759.52C789.43 737.713 785.501 714.848 776.793 681.047C775.348 673.643 774.102 659.694 774.366 659.694C779.74 677.118 786.228 695.657 793.821 714.197C799.979 729.26 806.921 744.456 814.722 759.982C814.722 759.982 814.722 760.049 814.788 760.049C816.422 760.049 874.721 759.784 877.148 759.784C877.215 759.784 877.215 759.718 877.215 759.718C874.202 742.954 869.026 727.164 861.953 711.703Z" fill="#CECECE"/>
<path d="M863.265 811.473C854.293 811.473 846.624 823.004 841.449 821.758C836.217 820.511 845.973 810.226 845.973 801.906C845.973 794.568 837.586 794.246 826.98 794.18C826.914 794.18 826.914 794.246 826.914 794.246C827.896 800.527 827.169 805.381 823.968 808.658C814.268 818.877 805.23 821.229 798.742 830.928C798.222 831.778 797.495 832.694 797.174 833.742C797.174 833.809 797.174 833.809 797.24 833.809C800.121 833.941 873.031 836.557 874.532 836.623C874.532 836.623 874.532 836.623 874.598 836.623L878.206 833.742C878.206 833.742 878.206 833.742 878.206 833.676C879.377 826.272 880.237 818.877 880.624 811.473C880.624 811.407 880.624 811.407 880.558 811.407L863.265 811.473Z" fill="#61CCFF"/>
<path d="M762.259 552.52C768.671 552.52 772.477 547.344 770.768 540.931L767.302 528.219H744.107L747.516 540.931C749.348 547.344 755.903 552.52 762.259 552.52Z" stroke="#3B3B3B" stroke-width="4" stroke-linecap="round" stroke-linejoin="round"/>
<path d="M804.305 528.286H791.526L794.936 541.054C796.702 547.41 803.719 552.718 808.828 552.718C811.511 552.718 813.475 552.199 814.92 551.273" stroke="#3B3B3B" stroke-width="4" stroke-linecap="round" stroke-linejoin="round"/>
<path d="M717.512 509.813L787.796 509.68L794.539 468.409" stroke="black" stroke-width="4" stroke-linecap="round" stroke-linejoin="round"/>
<path d="M790.544 495.863L799.781 498.81" stroke="black" stroke-width="4" stroke-linecap="round" stroke-linejoin="round"/>
<path d="M658.097 439.585L663.141 434.022" stroke="black" stroke-width="4" stroke-linecap="round" stroke-linejoin="round"/>
<path opacity="0.2" d="M706.112 472.933L711.684 490.877C711.684 490.943 711.817 490.943 711.817 490.877L723.282 457.472C723.282 457.406 723.216 457.34 723.15 457.406L706.112 472.933C706.112 472.866 706.112 472.866 706.112 472.933Z" fill="black"/>
<path d="M706.112 472.999L723.15 457.406" stroke="black" stroke-width="4" stroke-linecap="round" stroke-linejoin="round"/>
<path d="M730.62 394.129C730.62 394.129 725.964 393.931 722.489 394.384" stroke="black" stroke-width="4" stroke-linecap="round" stroke-linejoin="round"/>
<path d="M785.378 583.308C782.299 610.697 772.477 626.214 774.442 659.627" stroke="#3B3B3B" stroke-width="4" stroke-linecap="round" stroke-linejoin="round"/>
<path d="M604.388 357.183C610.933 365.041 623.38 384.628 623.38 384.628" stroke="#171717" stroke-width="4" stroke-linecap="round" stroke-linejoin="round"/>
<path d="M597.758 363.794C601.035 368.384 610.205 382.012 615.513 391.183" stroke="#171717" stroke-width="4" stroke-linecap="round" stroke-linejoin="round"/>
<path d="M593.829 372.965C593.829 372.965 603.727 389.936 608.307 397.794" stroke="#171717" stroke-width="4" stroke-linecap="round" stroke-linejoin="round"/>
<path d="M766.839 811.208C757.858 811.208 750.066 822.872 744.957 821.625C736.57 818.934 767.689 792.868 731.857 794.114C731.791 794.114 731.791 794.114 731.791 794.18C731.98 817.036 703.685 817.697 696.479 833.743C696.479 833.743 696.479 833.743 696.479 833.809C696.545 834.007 696.942 835.32 697.008 835.575C697.008 835.575 697.008 835.641 697.074 835.641L781.053 836.302H781.119L782.951 833.875C784.585 826.537 785.964 819.066 787.012 811.671C787.012 811.605 787.012 811.605 786.946 811.605C785.567 811.473 766.839 811.208 766.839 811.208Z" fill="#61CCFF"/>
<path d="M629.802 379.255C631.37 382.135 634.194 387.056 634.194 387.056" stroke="#171717" stroke-width="4" stroke-linecap="round" stroke-linejoin="round"/>
<path d="M725.501 809.896L731.461 815.269" stroke="#141515" stroke-width="4" stroke-linecap="round" stroke-linejoin="round"/>
<path d="M719.023 815.269L723.603 821.824" stroke="#141515" stroke-width="4" stroke-linecap="round" stroke-linejoin="round"/>
<path d="M822.853 810.226L828.482 815.269" stroke="#141515" stroke-width="4" stroke-linecap="round" stroke-linejoin="round"/>
<path d="M816.554 815.402L820.615 821.824" stroke="#141515" stroke-width="4" stroke-linecap="round" stroke-linejoin="round"/>
<path d="M794.87 843.177H876.232C876.232 843.177 876.298 843.177 876.298 843.111C876.431 842.714 877.281 839.381 878.197 833.809C878.197 833.742 878.197 833.742 878.131 833.742L797.165 833.809C797.165 833.809 797.099 833.809 797.099 833.875C795.786 836.755 794.936 839.9 794.737 843.111C794.804 843.111 794.87 843.177 794.87 843.177Z" fill="#141515"/>
<path d="M696.413 833.809C695.1 836.755 694.316 839.966 694.184 843.111C694.184 843.177 694.184 843.177 694.25 843.177H780.392C780.392 843.177 780.458 843.177 780.458 843.111C780.59 842.715 781.44 839.636 782.819 833.809C782.819 833.742 782.819 833.742 782.753 833.742C780.004 833.544 698.51 833.809 696.413 833.809C696.413 833.742 696.413 833.742 696.413 833.809Z" fill="#141515"/>
<path opacity="0.2" d="M774.442 659.694C777.058 668.08 780.335 678.62 783.877 688.055C787.022 696.574 790.686 706.594 793.765 713.866C793.765 713.932 793.897 713.932 793.897 713.866C793.434 706.726 786.823 603.028 785.378 583.44C785.378 583.374 785.246 583.374 785.246 583.44C782.828 608.071 773.592 630.473 774.442 659.694Z" fill="#3B3B3B"/>
<path d="M543.519 576.716H713.28C719.646 576.716 725.945 577.972 731.82 580.399C737.694 582.836 743.039 586.406 747.535 590.901C752.04 595.397 755.6 600.742 758.028 606.617C760.464 612.491 761.72 618.79 761.72 625.156V794.917C761.72 801.282 760.464 807.582 758.028 813.456C755.6 819.33 752.04 824.676 747.535 829.171C743.039 833.667 737.694 837.237 731.82 839.664C725.945 842.101 719.646 843.347 713.28 843.347H543.519C537.154 843.347 530.854 842.101 524.98 839.664C519.106 837.237 513.76 833.667 509.265 829.171C504.769 824.676 501.199 819.33 498.763 813.456C496.336 807.582 495.079 801.282 495.089 794.917V625.156C495.079 618.79 496.336 612.491 498.763 606.617C501.199 600.742 504.769 595.397 509.265 590.901C513.76 586.406 519.106 582.836 524.98 580.399C530.854 577.972 537.154 576.716 543.519 576.716Z" fill="#FFC930"/>
<path d="M651.477 715.67C663.405 667.674 662.083 626.034 648.53 622.662C634.987 619.3 614.333 655.481 602.414 703.477C590.486 751.473 591.808 793.104 605.36 796.475C618.904 799.837 639.549 763.656 651.477 715.67Z" stroke="#3C2C5B" stroke-width="4" stroke-linecap="round" stroke-linejoin="round"/>
<path d="M691.039 771.618C700.72 761.569 679.715 725.605 644.11 691.285C608.515 656.955 571.795 637.282 562.115 647.331C552.416 657.38 573.429 693.353 609.034 727.674C644.639 761.994 681.349 781.676 691.039 771.618Z" stroke="#3C2C5B" stroke-width="4" stroke-linecap="round" stroke-linejoin="round"/>
<path d="M633.93 733.822C681.444 720.156 716.85 698.198 712.988 684.778C709.134 671.357 667.476 671.574 619.943 685.24C572.428 698.916 537.031 720.883 540.884 734.294C544.738 747.714 586.396 747.497 633.93 733.822Z" stroke="#3C2C5B" stroke-width="4" stroke-linecap="round" stroke-linejoin="round"/>
<path d="M626.941 723.622C634.713 723.622 641.022 717.323 641.022 709.54C641.022 701.768 634.713 695.468 626.941 695.468C619.168 695.468 612.869 701.768 612.869 709.54C612.869 717.323 619.168 723.622 626.941 723.622Z" fill="#9E76DD"/>
<path d="M568.367 684.806C572.39 684.806 575.668 681.538 575.668 677.496C575.668 673.463 572.39 670.196 568.367 670.196C564.325 670.196 561.057 673.463 561.057 677.496C561.057 681.538 564.325 684.806 568.367 684.806Z" fill="#3C2C5B"/>
<path d="M695.459 715.056C699.492 715.056 702.769 711.788 702.769 707.746C702.769 703.713 699.492 700.436 695.459 700.436C691.426 700.436 688.159 703.713 688.159 707.746C688.159 711.788 691.426 715.056 695.459 715.056Z" fill="#3C2C5B"/>
<path d="M594.235 778.607C598.268 778.607 601.545 775.339 601.545 771.297C601.545 767.264 598.268 763.987 594.235 763.987C590.202 763.987 586.935 767.264 586.935 771.297C586.935 775.339 590.202 778.607 594.235 778.607Z" fill="#3C2C5B"/>
<path d="M284.141 522.147C288.854 525.141 293.104 528.531 293.245 530.118C293.378 531.714 290.516 533.574 286.332 533.178L279.419 527.993L284.141 522.147Z" fill="#CEA482"/>
<path d="M263.675 815.109C260.625 800.357 258.896 785.407 258.566 770.598L260.691 767.472L320.879 770.267L320.946 770.598C320.813 772.657 320.813 774.65 320.747 776.576C320.473 783.48 320.473 788.665 320.747 792.849L302.605 827.065L263.675 815.109Z" fill="#CEA482"/>
<path d="M144.441 815.109C143.572 800.687 144.309 785.68 146.566 770.598L147.359 769.266L208.407 766.745V770.532C207.416 772.789 206.415 774.914 205.687 776.642C203.298 781.827 201.503 787.739 200.238 793.311L183.569 826.461L144.441 815.109Z" fill="#CEA482"/>
<path d="M296.107 500.264H275.906H243.616H223.027C222.829 505.874 201.041 533.839 195.79 567.989C194.128 578.813 193.202 591.307 192.267 604.454C190.274 632.418 187.951 664.047 177.184 686.232C175.928 688.886 174.663 691.417 173.463 693.872C163.367 714.461 155.463 730.743 151.279 747.346C149.286 755.185 147.756 762.825 146.566 770.598L208.341 770.664C208.341 770.664 212.261 762.098 214.452 757.244C223.291 737.647 234.247 713.271 242.955 690.284C247.535 678.195 251.719 663.245 255.374 648.03C259.095 660.921 262.287 673.539 263.543 684.9C264.809 696.328 263.146 711.014 261.352 726.55C260.426 735.257 259.359 744.22 258.896 752.663C258.5 759.17 258.434 765.016 258.566 770.598H320.946C321.607 756.45 323.004 740.036 324.931 717.256C325.262 713.337 325.592 709.219 325.989 704.828C333.828 611.433 304.069 522.477 298.43 507.536L296.107 500.264Z" fill="#3C2C5B"/>
<path opacity="0.3" d="M263.543 684.9C261.616 667.428 261.55 667.835 255.374 648.03L265.942 593.961C265.942 593.961 274.64 551.509 277.568 574.629C282.082 611.433 263.741 684.173 263.543 684.9Z" fill="black"/>
<path d="M324.733 719.91C309.915 718.05 298.751 705.432 298.751 690.548C298.751 674.606 311.246 661.649 327.122 660.987C327.519 676.004 327.188 690.746 325.989 704.828C325.724 708.086 325.46 711.146 325.195 714.131C325.129 716.057 324.799 719.91 324.733 719.91Z" fill="black"/>
<path d="M232.254 716.718C222.423 711.675 216.378 701.645 216.378 690.548C216.378 674.209 229.666 660.987 245.939 660.987C247.932 660.987 249.924 661.186 251.917 661.582C249.065 672.481 246.005 682.114 242.954 690.218C239.961 698.189 236.447 706.821 232.254 716.718Z" fill="black"/>
<path d="M254.911 649.89C261.418 623.324 267 592.563 271.051 565.798" stroke="black" stroke-width="4" stroke-linecap="round" stroke-linejoin="round"/>
<path d="M441.379 506.139C440.652 506.139 439.981 505.94 439.386 505.676C437.79 504.807 436.733 503.088 436.733 501.36C436.733 501.36 431.746 502.814 426.627 502.814C422.443 502.814 419.327 501.889 417.4 500.094C417.4 500.094 417.334 500.028 417.334 500.094C416.73 500.359 409.854 503.107 402.28 505.799L393.884 461.769C412.017 457.888 428.695 457.113 441.049 457.113C465.424 457.113 478.316 458.445 480.242 461.231C480.573 461.628 480.639 462.166 480.441 462.695C478.646 468.144 457.85 469.136 449.048 469.448C457.718 469.136 461.769 471.799 461.968 475.586C462.109 477.844 460.844 480.035 458.322 482.16C458.322 482.16 459.843 483.822 459.644 486.079C459.512 487.874 458.388 489.536 456.263 491.122L453.931 492.718C453.997 492.718 456.858 496.572 451.607 500.822C446.895 504.477 443.769 506.139 441.379 506.139Z" fill="#CEA482"/>
<path d="M346.587 518.7C344.122 518.7 341.865 518.558 339.806 518.227C333.695 517.236 326.659 512.986 318.887 505.544C312.568 499.499 305.863 491.33 299.951 482.49C299.885 482.358 299.752 482.424 299.686 482.556L297.892 506.271H223.027L193.06 410.015L195.79 407.229C208.804 394.205 226.408 392.278 235.777 392.278C239.762 392.278 242.293 392.609 242.293 392.609L282.809 394.602C282.942 394.602 298.884 395.404 308.715 405.236C329.049 426.221 351.035 469.873 351.233 470.335C351.432 470.269 371.359 465.283 394.875 461.496L403.583 505.345C389.898 510.389 364.455 518.7 346.587 518.7Z" fill="#61CCFF"/>
<path d="M298.128 506.158H221.629" stroke="black" stroke-width="4" stroke-linecap="round" stroke-linejoin="round"/>
<path opacity="0.3" d="M312.106 498.234C307.79 493.257 303.672 487.807 299.885 482.094L302.076 455.716L312.106 498.234Z" fill="#2D373B"/>
<path opacity="0.3" d="M248.272 506.205H223.027L213.12 474.378L215.018 471.818L222.989 460.712L248.272 506.205Z" fill="#2D373B"/>
<path d="M351.233 470.335L346.851 479.374" stroke="#2D373B" stroke-width="4" stroke-linecap="round" stroke-linejoin="round"/>
<path d="M429.224 457.444C429.224 457.444 453.865 470.468 454.601 475.851C455.328 481.631 432.341 474.189 432.341 474.189C432.341 474.189 424.568 484.946 416.002 487.675" stroke="#191919" stroke-width="4" stroke-linecap="round" stroke-linejoin="round"/>
<path d="M436.666 501.095C436.459 497.969 440.454 495.249 440.454 495.249" stroke="#191919" stroke-width="4" stroke-linecap="round" stroke-linejoin="round"/>
<path d="M453.865 492.652C447.754 496.241 438.055 499.037 439.32 490.065" stroke="#191919" stroke-width="4" stroke-linecap="round" stroke-linejoin="round"/>
<path d="M458.256 482.094C455.461 484.02 442.172 492.652 438.385 487.94C434.608 483.217 443.504 477.711 443.504 477.711" stroke="#191919" stroke-width="4" stroke-linecap="round" stroke-linejoin="round"/>
<path d="M146.037 834.366C145.3 827.264 144.772 821.021 144.441 815.109H177.789L175.928 802.746C175.862 802.35 175.862 801.887 175.862 801.49C175.862 796.702 179.716 792.849 184.494 792.849H200.37C198.444 803.011 200.635 808.526 202.429 811.784C204.29 815.109 209.739 818.896 214.99 822.608C219.108 825.469 223.358 828.454 225.681 831.051C226.682 832.175 227.541 833.638 227.938 834.706L187.771 838.908L146.037 834.366Z" fill="#61CCFF"/>
<path d="M147.293 845C146.83 841.411 146.434 837.889 146.037 834.432V834.3H227.938C229.534 837.624 230.129 841.345 229.666 844.934L147.293 845Z" fill="#396073"/>
<path d="M268.397 834.564C266.603 828.123 265.007 821.418 263.675 815.109H298.751L296.891 802.746C296.825 802.35 296.825 801.887 296.825 801.49C296.825 796.702 300.678 792.849 305.466 792.849H320.747C321.408 802.283 323.335 806.467 327.32 811.784C329.445 814.637 333.96 818.027 338.748 821.682C342.998 824.874 347.38 828.189 349.902 831.051C350.903 832.175 351.432 832.977 351.961 833.969L352.168 834.64L314.693 841.156L268.397 834.564Z" fill="#61CCFF"/>
<path d="M271.448 845C270.324 841.411 269.257 837.822 268.331 834.366H352.102C353.689 837.69 354.293 841.411 353.821 845H271.448Z" fill="#396073"/>
<path d="M204.063 814.079L196.451 819.755" stroke="#396073" stroke-width="4" stroke-linecap="round" stroke-linejoin="round"/>
<path d="M329.417 814.24L321.342 819.755" stroke="#396073" stroke-width="4" stroke-linecap="round" stroke-linejoin="round"/>
<path d="M266.272 412.602C245.873 412.602 240.433 392.873 240.367 392.675C240.433 392.146 244.815 345.246 245.807 336.217C247.799 317.942 257.433 317.413 274.772 317.413C277.36 317.413 280.42 312.162 283.338 312.635C298.09 314.826 308.781 316.412 312.975 327.377C314.693 331.759 314.429 338.077 314.231 344.717C314.165 347.172 314.032 349.628 314.032 352.159C314.032 352.159 319.349 355.276 319.217 357.807C319.019 360.725 313.173 363.653 313.173 363.653C312.833 371.756 312.502 380.123 306.656 386.102C304.333 388.491 299.951 389.889 295.096 389.889C291.782 389.889 288.523 389.228 285.539 388.028L284.868 395.338C284.868 395.537 280.222 412.602 266.272 412.602Z" fill="#CEA482"/>
<path opacity="0.3" d="M276.236 382.447C279.494 389.294 283.338 392.212 284.604 393.006C284.802 393.147 285.067 393.006 285.133 392.741L285.539 388.227C285.539 388.094 285.473 387.962 285.407 387.896L276.765 381.984C276.435 381.786 276.038 382.116 276.236 382.447Z" fill="#191919"/>
<path d="M285.539 388.028C282.942 386.366 279.825 384.109 277.096 382.248" stroke="#191919" stroke-width="4" stroke-linecap="round" stroke-linejoin="round"/>
<path d="M271.514 362.057L265.536 356.739" stroke="#191919" stroke-width="4" stroke-linecap="round" stroke-linejoin="round"/>
<path d="M304.928 367.969C302.803 367.704 300.48 366.703 299.29 363.851" stroke="#191919" stroke-width="4" stroke-linecap="round" stroke-linejoin="round"/>
<path d="M304.531 351.961C305.674 351.961 306.59 351.035 306.59 349.902C306.59 348.759 305.674 347.833 304.531 347.833C303.398 347.833 302.472 348.759 302.472 349.902C302.472 351.035 303.398 351.961 304.531 351.961Z" fill="#231F20"/>
<path d="M246.609 379.255C244.749 379.255 243.285 379.122 242.426 379.056C241.887 378.99 241.557 378.594 241.623 378.065C242.888 362.784 245.013 339.532 245.674 333.355C247.667 315.156 257.499 305.92 274.838 305.92C277.426 305.92 280.288 306.118 283.206 306.581C297.958 308.781 308.923 316.28 313.173 327.245C314.164 329.767 314.363 332.959 314.495 335.613C314.495 336.075 314.164 336.481 313.702 336.548C313.239 336.614 312.634 336.68 311.907 336.68C309.121 336.68 303.672 335.745 296.759 329.767C296.031 329.172 295.03 329.833 295.238 330.702C296.362 334.819 296.296 337.804 295.03 339.598C294.171 340.864 292.641 341.525 290.582 341.525C288.127 341.525 285.331 340.599 283.678 339.929C283.008 339.664 282.347 340.202 282.413 340.864C282.611 343.319 282.677 348.173 280.817 351.621C280.552 352.159 279.825 352.225 279.419 351.895C276.963 349.76 269.455 343.65 263.146 343.65C260.625 343.65 258.5 344.651 256.97 346.643C248.338 357.599 260.625 369.961 264.081 373.144C264.544 373.55 264.478 374.277 263.949 374.608C258.434 378.461 251.52 379.255 246.609 379.255Z" fill="#231F20"/>
<path d="M251.521 578.68L290.582 510.993L335.424 536.833L296.296 604.52L251.521 578.68Z" fill="#CECECE"/>
<path d="M223.395 460.192L206.415 484.285C206.613 484.351 225.416 493.653 239.828 500.491L221.629 541.744C202.627 537.229 168.817 526.935 155.935 508.868C134.808 479.298 177.251 424.889 195.79 407.229" fill="#61CCFF"/>
<path d="M284.802 574.629C276.897 574.629 236.712 545.002 236.315 544.738C236.24 544.738 230.195 543.803 221.497 541.744L239.564 500.359C245.674 503.22 250.926 505.676 253.579 506.875C277.898 517.368 284.075 522.081 284.141 522.147L280.817 528.125C281.015 528.257 304.135 544.143 308.054 550.055C309.452 552.114 309.915 554.04 309.518 555.693C309.055 557.752 307.393 558.687 307.393 558.687C308.923 561.539 309.253 563.73 308.385 565.26C307.195 567.319 304.135 567.319 304.069 567.319C303.804 569.652 302.274 570.775 299.554 570.775C292.575 570.775 279.759 562.804 279.494 562.672C279.759 562.871 288.391 570.709 287.258 573.571C286.993 574.298 286.2 574.629 284.802 574.629Z" fill="#CEA482"/>
<path d="M299.753 482.16L302.076 455.716" stroke="#2D373B" stroke-width="4" stroke-linecap="round" stroke-linejoin="round"/>
<path d="M214.055 473.452L223.093 460.636" stroke="#2D373B" stroke-width="4" stroke-linecap="round" stroke-linejoin="round"/>
<path d="M206.415 483.624L192.73 485.749" stroke="#2D373B" stroke-width="4" stroke-linecap="round" stroke-linejoin="round"/>
<path d="M307.393 558.687L278.163 538.089" stroke="#191919" stroke-width="4" stroke-linecap="round" stroke-linejoin="round"/>
<path d="M304.069 567.319L272.846 546.73" stroke="#191919" stroke-width="4" stroke-linecap="round" stroke-linejoin="round"/>
<path d="M279.494 562.672L268.199 555.362" stroke="#191919" stroke-width="4" stroke-linecap="round" stroke-linejoin="round"/>
<path d="M936.553 734.483C960.098 694.278 983.633 679.073 995.892 648.748C1010.45 612.463 999.462 539.052 1042.26 504.165H1042.33L1084.57 515.649C1084.57 515.649 1084.64 515.649 1084.64 515.725C1084.85 517.547 1092.28 578.482 1063.98 646.292C1058.38 659.675 1051.43 673.331 1042.68 686.855C1019.57 722.791 994.834 759.142 983.066 779.74C979.496 786.039 977.116 790.875 976.342 793.746C976.342 793.746 976.342 793.746 976.342 793.821L955.753 806.987H955.678L917.995 768.463V768.388C918.836 766.499 920.8 762.712 923.18 758.16C927.241 750.321 932.775 740.301 936.553 734.483Z" fill="#F49E73"/>
<path opacity="0.2" d="M995.816 648.748C1010.39 612.463 999.395 539.052 1042.19 504.165H1042.26L1084.5 515.649C1084.5 515.649 1084.57 515.649 1084.57 515.725C1084.78 517.547 1092.2 578.482 1063.98 646.226C1063.98 646.226 1063.98 646.292 1063.91 646.292L989.026 662.895C988.95 662.895 988.884 662.829 988.95 662.829C991.472 658.409 993.785 653.791 995.816 648.748Z" fill="#171717"/>
<path d="M1051.37 356.503C1050.67 342.138 1053.68 333.317 1060.9 322.523C1068.11 311.737 1079.74 305.155 1095.92 313.702C1107.41 319.727 1111.4 334.857 1112.45 347.956C1112.45 347.956 1112.45 348.022 1112.52 348.022C1113.01 348.164 1118.05 349.987 1118.2 352.301C1118.4 354.68 1114.63 357.759 1114.28 358.109V358.184C1117.7 367.081 1117.56 379.198 1107.97 383.401C1103.27 385.497 1095.71 385.781 1090.52 384.241C1090.46 384.241 1090.46 384.241 1090.46 384.307L1090.6 387.603C1090.6 387.669 1090.6 387.669 1090.52 387.669L1069.44 390.267H1061.6C1061.6 390.267 1061.53 390.267 1061.53 390.191C1061.1 389.35 1051.16 388.652 1051.08 387.669C1050.95 385.431 1050.81 382.768 1050.59 379.897C1050.11 371.982 1051.65 362.519 1051.37 356.503Z" fill="#F49E73"/>
<path d="M1049.13 356.078C1048.43 341.723 1047.1 329.039 1054.31 318.32C1061.53 307.535 1081.84 301.16 1097.95 309.707H1098.02C1101.03 306.977 1104.75 305.221 1108.81 304.663C1114.83 303.965 1122.46 307.884 1121.7 316.148C1120.65 329.115 1098.86 346.417 1086.25 349.911H1086.18C1085.48 349.354 1071.12 338.002 1062.72 346.417C1055.29 355.729 1070.28 368.828 1071.12 369.527V369.602C1068.95 374.504 1056.76 379.963 1050.53 379.831C1050.46 379.831 1050.46 379.831 1050.46 379.755C1050.18 375.76 1049.27 359.648 1049.13 356.078Z" fill="#A66241"/>
<path d="M1053.12 264.884C1038.48 246.175 1018.24 237.637 1007.87 245.759C997.497 253.881 1000.86 275.603 1015.51 294.303C1030.15 313.003 1049.97 320.502 1060.33 312.379C1070.7 304.248 1067.69 283.518 1053.12 264.884Z" fill="#A66241"/>
<path d="M948.254 390.191C948.047 389.7 945.874 386.196 948.254 382.976C950.493 380.038 958.341 386.479 960.721 388.51C960.797 388.586 960.863 388.51 960.796 388.444C958.058 385.082 946.639 370.575 951.126 368.762C955.961 366.656 975.01 389.426 976.767 391.523C976.833 391.598 976.908 391.523 976.908 391.457C976.908 389.983 976.833 380.945 978.797 379.613C980.97 378.14 986.995 388.094 993.436 400.976C996.94 407.984 1001.63 419.61 1005.06 428.374V428.44L992.246 450.578C992.246 450.578 992.18 450.644 992.18 450.578L971.582 443.92C971.582 443.92 971.516 443.92 971.516 443.854C970.316 435.306 969.41 428.648 968.427 427.458C964.857 423.114 965.556 424.587 955.536 415.275C946.016 406.445 948.746 401.467 949.095 400.976V400.91C944.259 396.15 947.905 390.682 948.254 390.191Z" fill="#F49E73"/>
<path d="M1079.45 667.589C1073.71 628.848 1025.03 572.107 1044.29 520.485L1044.36 520.418L1100.47 520.768H1100.54C1101.31 522.166 1127.51 569.378 1138.93 641.041C1139.63 652.525 1139.77 664.51 1139 676.835C1135.92 726.502 1132.48 759 1130.52 787.229C1130.39 789.543 1130.25 791.857 1130.1 794.095L1117.01 826.612C1117.01 826.678 1116.93 826.678 1116.93 826.612L1068.04 797.599V797.533C1067.34 702.476 1084.22 699.879 1079.45 667.589Z" fill="#F49E73"/>
<path opacity="0.2" d="M1135.92 639.228L1077.01 656.454C1076.93 656.454 1076.93 656.454 1076.93 656.388C1075.54 651.486 1073.65 646.368 1071.54 640.975C1070.21 637.613 1068.74 634.043 1067.2 630.539C1067.2 630.473 1067.2 630.473 1067.27 630.473L1135.92 639.086C1135.99 639.152 1135.99 639.228 1135.92 639.228Z" fill="#171717"/>
<path d="M1227.13 499.122C1243.59 507.036 1267.26 523.497 1270.14 529.239C1272.72 534.49 1268.24 535.548 1267.4 535.69C1267.33 535.69 1267.33 535.756 1267.4 535.822C1272.72 541.29 1264.39 543.463 1263.76 543.604C1263.76 543.604 1263.68 543.604 1263.68 543.67C1261.65 554.182 1242.11 541.007 1239.03 538.91C1238.96 538.835 1238.89 538.976 1238.96 538.976C1240.99 541.498 1251.78 555.088 1246.52 555.721C1240.85 556.42 1228.24 540.384 1227.89 539.959C1227.75 539.893 1225.94 539.118 1217.8 537.088C1212.41 535.614 1207.58 532.951 1203.45 529.173C1203.45 529.173 1203.45 529.173 1203.37 529.173C1202.82 529.173 1194.48 529.239 1184.18 528.824C1184.11 528.824 1184.11 528.824 1184.11 528.748L1183.69 503.608C1183.69 503.608 1183.69 503.608 1183.69 503.532L1193.84 487.769C1193.84 487.769 1193.92 487.703 1193.92 487.769C1206.59 491.557 1220.12 495.759 1227.13 499.122Z" fill="#F49E73"/>
<path d="M1042.26 504.165L1076.52 513.477H1103.07H1103.13C1103.97 514.95 1134.24 567.838 1138.86 641.041C1138.86 641.107 1138.86 641.107 1138.79 641.107L998.479 641.041C998.413 641.041 998.413 640.965 998.413 640.965C1009.06 602.792 1002.27 536.597 1042.26 504.165C1042.19 504.165 1042.19 504.165 1042.26 504.165Z" fill="#61CCFF"/>
<path d="M1133.75 493.597C1159.38 504.033 1177.32 495.901 1181.45 484.133L1181.52 484.067C1185.51 485.257 1189.43 486.381 1193.92 487.637C1193.99 487.637 1193.99 487.713 1193.99 487.713L1184.18 528.692L1184.11 528.758C1171.78 528.125 1156.51 526.661 1145.66 523.082L1145.58 523.016C1147.55 512.721 1135.15 495.693 1133.67 493.729C1133.61 493.663 1133.67 493.597 1133.75 493.597Z" fill="#9E76DD"/>
<path d="M1007.45 488.336C994.418 479.156 984.19 457.718 983.982 437.753C983.982 437.753 983.982 437.686 984.048 437.686L1005 428.374C1005.06 428.374 1005.06 428.374 1005.06 428.44C1005.63 429.98 1006.19 431.378 1006.74 432.709C1008.42 437.054 1009.55 440.142 1009.83 440.907C1009.83 440.982 1009.97 440.982 1009.97 440.907C1010.45 439.575 1013.61 430.962 1017.89 421.924L1017.95 421.858C1031.34 426.693 1040.37 433.276 1041.77 434.324C1041.84 434.39 1041.91 434.324 1041.84 434.258C1037.85 424.871 1036.52 414.567 1035.33 399.371C1035.33 399.371 1035.33 399.295 1035.4 399.295C1040.44 396.424 1045.77 394.252 1051.37 393.062L1051.43 392.996L1051.02 387.745C1051.02 387.669 1051.02 387.669 1051.08 387.669H1090.46C1090.52 387.669 1090.52 387.669 1090.52 387.745L1090.73 392.222C1090.73 392.297 1090.73 392.297 1090.81 392.297C1104.67 392.571 1117.7 397.057 1128.14 410.931C1131.5 415.407 1135.71 423.048 1140.05 431.803V431.869C1124.78 442.38 1097.11 441.115 1065.1 417.23C1065.02 417.164 1064.96 417.23 1065.02 417.306C1067.69 421.716 1097.6 473.622 1046.47 477.126C1046.39 477.126 1046.39 477.192 1046.47 477.267C1049.13 478.807 1077.36 495.552 1081.14 513.345C1081.14 513.411 1081.14 513.411 1081.07 513.411H1032.88C1032.81 513.411 1032.81 513.411 1032.81 513.345L1030.07 490.716C1030.07 490.641 1030 490.641 1029.93 490.716C1028.67 492.813 1016.06 512.92 994.975 504.023C987.902 501.01 982.934 492.605 979.43 482.311C979.43 482.235 979.43 482.235 979.496 482.235C991.198 481.612 1004.3 487.005 1007.45 488.402C1007.45 488.468 1007.52 488.402 1007.45 488.336Z" fill="#9E76DD"/>
<path opacity="0.2" d="M1006.88 433.002C1008.22 436.43 1009.76 440.708 1009.9 441.058C1009.9 441.058 1009.9 441.058 1009.9 441.124L1005.41 451.56C1005.41 451.636 1005.28 451.636 1005.28 451.56L1006.74 433.068C1006.74 432.926 1006.82 432.926 1006.88 433.002Z" fill="#3D2B5A"/>
<path opacity="0.2" d="M1029.93 490.584C1029.72 490.999 1025.8 497.582 1019 502.068C1018.94 502.144 1018.87 502.068 1018.87 502.002C1019.78 500.321 1025.03 489.885 1027.28 469.211C1027.28 469.145 1027.41 469.145 1027.41 469.211L1029.93 490.584Z" fill="#3D2B5A"/>
<path d="M1044.93 476.842C1096.13 473.272 1066.08 419.969 1063.42 415.483C1063.34 415.407 1063.48 415.341 1063.48 415.407C1095.5 439.367 1124.64 442.38 1139.91 431.944H1139.98C1149.86 452.051 1159.95 477.334 1160.3 478.382C1160.3 478.382 1160.3 478.382 1160.36 478.457C1161 478.599 1169.82 480.837 1181.31 484.133C1181.38 484.133 1181.38 484.2 1181.38 484.2C1177.32 495.967 1162.54 506.894 1136.97 496.458C1136.89 496.458 1136.83 496.524 1136.89 496.524C1138.08 498.347 1147.47 512.854 1145.52 523.006C1145.52 523.072 1145.44 523.072 1145.44 523.072C1143.49 522.449 1141.45 521.608 1139.7 520.626C1122.68 511.73 1111.47 486.655 1110.42 484.266C1110.42 484.2 1110.28 484.2 1110.28 484.266L1106.64 498.98L1103.07 513.411L1102.99 513.477H1078.61C1078.61 513.477 1078.55 513.477 1078.55 513.411C1074.69 495.618 1047.37 478.457 1044.85 476.918C1044.85 476.918 1044.85 476.842 1044.93 476.842Z" fill="#CBB3EF"/>
<path opacity="0.2" d="M1110.42 484.067L1106.84 498.64C1106.84 498.706 1106.71 498.706 1106.71 498.64L1101.73 466.067C1101.73 465.991 1101.8 465.925 1101.88 465.991L1110.42 484.067Z" fill="#393243"/>
<path d="M1017.95 421.867C1017.89 421.867 1017.89 421.792 1017.89 421.792C1019.98 417.381 1022.36 413.037 1024.96 408.834C1027.62 404.773 1031.34 401.685 1035.26 399.38C1035.33 399.38 1035.33 399.38 1035.33 399.446C1036.59 414.652 1042.61 431.67 1046.61 441.2C1046.61 441.266 1046.53 441.332 1046.47 441.266C1044.64 439.301 1031.48 426.693 1017.95 421.867Z" fill="#CBB3EF"/>
<path d="M983.982 437.828C984.256 457.859 997.082 480.696 1010.11 489.942C1010.18 490.017 1010.11 490.083 1010.04 490.083C1006.54 488.468 991.198 481.82 979.43 482.519C979.43 482.519 979.355 482.519 979.355 482.452C975.152 469.977 972.98 455.196 971.44 443.995C971.44 443.995 971.44 443.92 971.516 443.92L983.841 437.828C983.907 437.686 983.982 437.753 983.982 437.828Z" fill="#CBB3EF"/>
<path d="M1267.4 535.69L1246.38 519.228" stroke="#171717" stroke-width="4" stroke-linecap="round" stroke-linejoin="round"/>
<path d="M1263.68 543.68L1240.64 528.55" stroke="#171717" stroke-width="4" stroke-linecap="round" stroke-linejoin="round"/>
<path d="M980.828 397.831L976.909 391.381" stroke="#171717" stroke-width="4" stroke-linecap="round" stroke-linejoin="round"/>
<path d="M948.255 390.2C954.696 395.943 960.164 399.796 960.164 399.796" stroke="#171717" stroke-width="4" stroke-linecap="round" stroke-linejoin="round"/>
<path d="M949.095 400.976C952.665 404.556 957.217 408.267 957.217 408.267" stroke="#171717" stroke-width="4" stroke-linecap="round" stroke-linejoin="round"/>
<path d="M1057.6 568.82C1063.07 573.306 1071.33 573.306 1077.63 568.82C1081.98 565.742 1084.72 560.972 1085.27 555.787L1086.6 540.1C1086.6 540.025 1086.6 540.025 1086.53 540.025H1053.61C1053.54 540.025 1053.54 540.025 1053.54 540.1L1052.21 555.787C1051.86 560.689 1053.82 565.666 1057.6 568.82Z" fill="#C5EBFD"/>
<path d="M1022.79 568.83C1018.87 571.767 1013.89 572.891 1009.13 571.843C1009.06 571.843 1009.06 571.767 1009.06 571.767C1011.02 560.982 1013.54 550.055 1017.4 540.034L1017.46 539.968H1031.69C1031.75 539.968 1031.75 540.034 1031.75 540.034L1030.42 555.731C1029.86 561.048 1027.13 565.817 1022.79 568.83Z" fill="#C5EBFD"/>
<path d="M1090.17 384.251C1087.37 383.268 1084.78 381.937 1083.03 380.463" stroke="#171717" stroke-width="4" stroke-linecap="round" stroke-linejoin="round"/>
<path d="M1077.42 358.741L1072.46 353.698" stroke="#171717" stroke-width="4" stroke-linecap="round" stroke-linejoin="round"/>
<path d="M1103.21 352.027C1102.01 352.027 1101.03 351.054 1101.03 349.854C1101.03 348.646 1102.01 347.682 1103.21 347.682C1104.41 347.682 1105.38 348.646 1105.38 349.854C1105.38 351.054 1104.41 352.027 1103.21 352.027Z" fill="#231F20"/>
<path d="M1107.33 364.068C1105.38 364.144 1103.62 363.369 1102.29 361.896" stroke="#171717" stroke-width="4" stroke-linecap="round" stroke-linejoin="round"/>
<path d="M1009.9 441.058L1005.35 451.494" stroke="#16141A" stroke-width="4" stroke-linecap="round" stroke-linejoin="round"/>
<path d="M1110.35 484.067L1101.8 466.067" stroke="#171519" stroke-width="4" stroke-linecap="round" stroke-linejoin="round"/>
<path d="M1029.93 490.574L1027.41 469.278" stroke="#16141A" stroke-width="4" stroke-linecap="round" stroke-linejoin="round"/>
<path d="M1054.17 318.537C1056.84 314.476 1061.31 311.048 1066.64 308.8" stroke="#171717" stroke-width="4" stroke-linecap="round" stroke-linejoin="round"/>
<path d="M1156.37 829.266C1149.72 818.273 1130.87 815.402 1130.74 793.113C1130.74 791.923 1130.52 788.145 1130.45 787.371C1130.45 787.305 1130.45 787.305 1130.39 787.305L1116.31 787.446C1111.05 787.446 1107.13 792.14 1107.97 797.25L1110.28 811.473C1110.28 811.539 1110.21 811.614 1110.14 811.539C1108.46 809.999 1093.33 798.789 1068.18 797.675C1068.04 797.675 1067.97 797.741 1067.97 797.882C1068.04 816.1 1067.97 821.984 1068.74 829.625C1068.74 829.625 1068.74 829.691 1068.81 829.691C1069.02 829.691 1070.07 829.899 1070.07 829.899L1156.3 829.483L1156.37 829.266Z" fill="white"/>
<path d="M1156.3 829.266L1068.6 828.567C1068.53 828.567 1068.53 828.642 1068.53 828.642C1068.88 835.083 1069.02 835.99 1069.51 841.6C1069.51 841.666 1069.51 841.666 1069.59 841.666H1159.38C1159.46 841.666 1159.46 841.666 1159.46 841.6C1159.46 838.238 1158.97 835.508 1158.13 833.053C1157.7 831.655 1157.07 830.465 1156.3 829.266C1156.37 829.266 1156.37 829.266 1156.3 829.266Z" fill="#9E76DD"/>
<path d="M1132.77 804.966L1122.89 809.093" stroke="white" stroke-width="4" stroke-linecap="round" stroke-linejoin="round"/>
<path d="M1137.39 812.597L1128.98 818.905" stroke="white" stroke-width="4" stroke-linecap="round" stroke-linejoin="round"/>
<path d="M1110.28 811.68L1113.71 828.567" stroke="white" stroke-width="4" stroke-linecap="round" stroke-linejoin="round"/>
<path d="M986.504 828.217C985.38 815.402 970.675 804.956 980.412 784.925C980.97 783.801 981.319 782.611 982.018 781.421C982.301 780.93 982.651 780.231 982.934 779.74V779.664L969.901 773.365C965.207 771.051 959.607 773.507 958.058 778.474L953.789 792.414C953.505 791.574 946.016 770.843 923.104 758.235C923.038 758.235 923.038 758.235 923.038 758.235C920.375 762.438 910.147 781.213 906.785 789.269L906.992 788.986L986.296 828.217H986.504Z" fill="white"/>
<path d="M986.428 828.217L907.068 788.504C906.992 788.504 906.992 788.504 906.992 788.504C904.546 793.821 903.422 796.56 901.675 800.338V800.413L983.699 840.684C983.775 840.684 983.774 840.684 983.774 840.684C985.238 837.671 986.013 835.017 986.362 832.42C986.57 830.947 986.57 829.549 986.428 828.217C986.504 828.217 986.504 828.217 986.428 828.217Z" fill="#9E76DD"/>
<path d="M977.749 805.315L968.569 807.062" stroke="white" stroke-width="4" stroke-linecap="round" stroke-linejoin="round"/>
<path d="M953.789 792.556L949.445 809.225" stroke="white" stroke-width="4" stroke-linecap="round" stroke-linejoin="round"/>
<path d="M977.116 797.533L968.154 796.343" stroke="white" stroke-width="4" stroke-linecap="round" stroke-linejoin="round"/>
<path d="M1032.67 513.486H1103.13" stroke="#141415" stroke-width="4" stroke-linecap="round" stroke-linejoin="round"/>
</svg>
